#define bdiagonal2_width 8
#define bdiagonal2_height 8
static unsigned char bdiagonal2_bits[] = {
   0x08, 0x04, 0x02, 0x01, 0x80, 0x40, 0x20, 0x10};

