#define cross3_width 8
#define cross3_height 8
static unsigned char cross3_bits[] = {
   0xff, 0x01, 0x01, 0x01, 0x01, 0x01, 0x01, 0x01};

