#define cross1_width 8
#define cross1_height 8
static unsigned char cross_bits[] = {
   0xff, 0xaa, 0xff, 0xaa, 0xff, 0xaa, 0xff, 0xaa};

