#define dot2_width 8
#define dot2_height 8
static unsigned char dot2_bits[] = {
   0x55, 0x00, 0x55, 0x00, 0x55, 0x00, 0x55, 0x00};

