#define dot3_width 8
#define dot3_height 8
static unsigned char dot3_bits[] = {
   0x11, 0x00, 0x00, 0x00, 0x11, 0x00, 0x00, 0x00};

