#define hline1_width 8
#define hline1_height 8
static unsigned char hline1_bits[] = {
   0xff, 0x00, 0xff, 0x00, 0xff, 0x00, 0xff, 0x00};

