#define ltop_width 8
#define ltop_height 8
static unsigned char ltop_bits[] = {
   0xee, 0x88, 0x88, 0x00, 0xee, 0x88, 0x88, 0x00};

