#define rtop_width 8
#define rtop_height 8
static unsigned char rtop_bits[] = {
   0x77, 0x11, 0x11, 0x00, 0x77, 0x11, 0x11, 0x00};

