#define vline2_width 8
#define vline2_height 8
static unsigned char vline2_bits[] = {
   0x33, 0x33, 0x33, 0x33, 0x33, 0x33, 0x33, 0x33};

