#define vline1_width 8
#define vline1_height 8
static unsigned char vline1_bits[] = {
   0x55, 0x55, 0x55, 0x55, 0x55, 0x55, 0x55, 0x55};

